/* XPM */
static char * start_xpm[] = {
"24 24 345 2",
"  	c None",
". 	c #FEFEFE",
"+ 	c #FFFFFF",
"@ 	c #FEFDFE",
"# 	c #FDFDFE",
"$ 	c #FDFDFD",
"% 	c #FEFEFF",
"& 	c #F2F3F3",
"* 	c #C6C6C6",
"= 	c #FDFFFE",
"- 	c #FDFFFF",
"; 	c #FFFEFD",
"> 	c #FDFCFB",
", 	c #FEFDFD",
"' 	c #E4E3E0",
") 	c #A8A7A7",
"! 	c #C9C8C2",
"~ 	c #9E9B93",
"{ 	c #C9C9C5",
"] 	c #8A8886",
"^ 	c #EBEBE7",
"/ 	c #A2A6A1",
"( 	c #EFEEEE",
"_ 	c #FFFEFF",
": 	c #F7FAF7",
"< 	c #959387",
"[ 	c #AFABA3",
"} 	c #4C4941",
"| 	c #9E8D3E",
"1 	c #BCA243",
"2 	c #807A53",
"3 	c #978B69",
"4 	c #948755",
"5 	c #B3B1AF",
"6 	c #939289",
"7 	c #FAFAFA",
"8 	c #878686",
"9 	c #82753D",
"0 	c #DDC139",
"a 	c #988A45",
"b 	c #CEB550",
"c 	c #CBB55C",
"d 	c #C1AF64",
"e 	c #BCA766",
"f 	c #D5BE6B",
"g 	c #8B7F42",
"h 	c #6C6A65",
"i 	c #B9BCBE",
"j 	c #D1D0CC",
"k 	c #9C9C90",
"l 	c #BDBFB7",
"m 	c #676052",
"n 	c #C6AD30",
"o 	c #B29E38",
"p 	c #D1BB5F",
"q 	c #E3CE7F",
"r 	c #BAA979",
"s 	c #EDDDB2",
"t 	c #DCD1A2",
"u 	c #B3A479",
"v 	c #C9B991",
"w 	c #D3C278",
"x 	c #988D6D",
"y 	c #C9C7C2",
"z 	c #989889",
"A 	c #BCBBB5",
"B 	c #82722A",
"C 	c #BDA628",
"D 	c #E8CB5F",
"E 	c #C4AE67",
"F 	c #E1CF98",
"G 	c #BDB08F",
"H 	c #EBE2C8",
"I 	c #B9B29E",
"J 	c #E3DDCE",
"K 	c #E8E2CB",
"L 	c #D8CFB2",
"M 	c #B3A78C",
"N 	c #B6AA7F",
"O 	c #37332D",
"P 	c #C8C6C7",
"Q 	c #CDCDCA",
"R 	c #F9F9F9",
"S 	c #E0DFD9",
"T 	c #99881D",
"U 	c #91813E",
"V 	c #E4CB6D",
"W 	c #C1AE7B",
"X 	c #ECE4C7",
"Y 	c #EFE7D5",
"Z 	c #FAF9F1",
"` 	c #E4E3D5",
" .	c #E4E3DE",
"..	c #CFCFC5",
"+.	c #CEC5AB",
"@.	c #F7EFDA",
"#.	c #D6CDAE",
"$.	c #C7BB8A",
"%.	c #AEA361",
"&.	c #CBCCCD",
"*.	c #FCF8F8",
"=.	c #817F63",
"-.	c #917D2A",
";.	c #C5C3C1",
">.	c #988B5F",
",.	c #E6DAAB",
"'.	c #F5EED6",
").	c #C0BFB8",
"!.	c #EFEFED",
"~.	c #EFEFE5",
"{.	c #E3E3D9",
"].	c #C3C2B5",
"^.	c #B7B6AE",
"/.	c #C9C4B0",
"(.	c #D0C19A",
"_.	c #88815B",
":.	c #CECDCC",
"<.	c #FBFBFB",
"[.	c #C2C2C4",
"}.	c #8E8971",
"|.	c #877E56",
"1.	c #E5E7E7",
"2.	c #76736B",
"3.	c #E8DCBA",
"4.	c #F1EEE4",
"5.	c #F5F3F1",
"6.	c #F8F9F5",
"7.	c #E8E8E6",
"8.	c #FCFCFA",
"9.	c #F0F0EB",
"0.	c #CCCECA",
"a.	c #F2F1EB",
"b.	c #C6C2A9",
"c.	c #E9E0BF",
"d.	c #988D68",
"e.	c #747168",
"f.	c #F4F3F0",
"g.	c #F1F1F2",
"h.	c #DEDEDE",
"i.	c #958F6F",
"j.	c #A49E87",
"k.	c #998B50",
"l.	c #8A8369",
"m.	c #E6DCBC",
"n.	c #EEE2BD",
"o.	c #E7E2CC",
"p.	c #E5E5E0",
"q.	c #F7F7F5",
"r.	c #F6F6F6",
"s.	c #E9E8E5",
"t.	c #FBF9F8",
"u.	c #F8F8F3",
"v.	c #C9CCC7",
"w.	c #B9B4A1",
"x.	c #C1B99A",
"y.	c #AA9B73",
"z.	c #A5A399",
"A.	c #CCCED2",
"B.	c #C3BC95",
"C.	c #8A8041",
"D.	c #B6B5B1",
"E.	c #FEFFFF",
"F.	c #DBDBDC",
"G.	c #867B41",
"H.	c #C2BAB4",
"I.	c #988845",
"J.	c #E9DDAA",
"K.	c #FCF8F1",
"L.	c #FEFBF2",
"M.	c #C0B795",
"N.	c #CFCFCF",
"O.	c #FAFBF8",
"P.	c #E7E7E4",
"Q.	c #EBEBE9",
"R.	c #F1F1ED",
"S.	c #F7F5F1",
"T.	c #E9E1C9",
"U.	c #C1B48A",
"V.	c #918A6B",
"W.	c #CFC198",
"X.	c #C9BB91",
"Y.	c #B6B3A2",
"Z.	c #A09F93",
"`.	c #A89A69",
" +	c #A4A5A0",
".+	c #888271",
"++	c #C5BEA5",
"@+	c #FFFCFF",
"#+	c #FFFDF8",
"$+	c #C0B996",
"%+	c #CECEC9",
"&+	c #F2F4F2",
"*+	c #E8E7DD",
"=+	c #C0BEB6",
"-+	c #CDCDC6",
";+	c #E4E4E0",
">+	c #E5E0D7",
",+	c #B9B8A7",
"'+	c #BEB69A",
")+	c #CAB97F",
"!+	c #F9EFCD",
"~+	c #F7E9B9",
"{+	c #8F8971",
"]+	c #FBFCFB",
"^+	c #FEFEFD",
"/+	c #AFB0AC",
"(+	c #948E7B",
"_+	c #988B3E",
":+	c #DDDCE0",
"<+	c #CBC4AD",
"[+	c #A69A54",
"}+	c #F1E3B1",
"|+	c #F8F0DB",
"1+	c #D5CCAD",
"2+	c #E4E4E1",
"3+	c #EAE9EA",
"4+	c #DCDCD8",
"5+	c #DED8C9",
"6+	c #CDCAC7",
"7+	c #DFE0D7",
"8+	c #BFBEB0",
"9+	c #F0EDE2",
"0+	c #CABF9A",
"a+	c #978B6C",
"b+	c #CDC09B",
"c+	c #96843F",
"d+	c #E3E3E2",
"e+	c #BFBDBB",
"f+	c #858074",
"g+	c #6D694A",
"h+	c #B2AD9D",
"i+	c #A69E6B",
"j+	c #E1BE47",
"k+	c #E8D27F",
"l+	c #EEDFAE",
"m+	c #CFC7AC",
"n+	c #DFDDD7",
"o+	c #EDEBE2",
"p+	c #D9DACA",
"q+	c #B6B5A9",
"r+	c #CCC5AA",
"s+	c #A19362",
"t+	c #CBC6B2",
"u+	c #D3CCAD",
"v+	c #8E825C",
"w+	c #A49560",
"x+	c #B8B185",
"y+	c #817C6C",
"z+	c #F7F6F9",
"A+	c #6B6137",
"B+	c #9F8817",
"C+	c #998734",
"D+	c #D5BC54",
"E+	c #BEAB66",
"F+	c #F4E6AF",
"G+	c #DCD3B4",
"H+	c #E6E0CC",
"I+	c #C6C4B9",
"J+	c #F7F1E5",
"K+	c #A5A395",
"L+	c #C4BEAB",
"M+	c #E1DDBF",
"N+	c #CDBF8C",
"O+	c #998D5C",
"P+	c #8A898F",
"Q+	c #CCCBC0",
"R+	c #959287",
"S+	c #FEFEFC",
"T+	c #F9F8F8",
"U+	c #C5C4C4",
"V+	c #918548",
"W+	c #C1A725",
"X+	c #D0B43D",
"Y+	c #DDC667",
"Z+	c #C2AE6F",
"`+	c #E4D6A9",
" @	c #ECDEAF",
".@	c #CEC4A1",
"+@	c #E6DBB7",
"@@	c #EAE2C1",
"#@	c #A3976B",
"$@	c #BEAE86",
"%@	c #AA9D6E",
"&@	c #655F40",
"*@	c #DAD9D0",
"=@	c #FBFBFA",
"-@	c #F7F7F3",
";@	c #E7E7E1",
">@	c #6D6B5C",
",@	c #877824",
"'@	c #C1B06B",
")@	c #A28B26",
"!@	c #CFB854",
"~@	c #DCC479",
"{@	c #AE9D68",
"]@	c #E0D093",
"^@	c #988A52",
"/@	c #C6B681",
"(@	c #E1CA87",
"_@	c #BEB070",
":@	c #807B72",
"<@	c #ECECE8",
"[@	c #A6A4A2",
"}@	c #E1E0DF",
"|@	c #EAEAE9",
"1@	c #88847B",
"2@	c #978D69",
"3@	c #AD9717",
"4@	c #9B8240",
"5@	c #BEA53D",
"6@	c #B19E47",
"7@	c #8D7944",
"8@	c #C5AD51",
"9@	c #80723E",
"0@	c #928A6A",
"a@	c #88806B",
"b@	c #E6E7E2",
"c@	c #F5F7F5",
"d@	c #FDFDFC",
"e@	c #F7F7F7",
"f@	c #F3F3F3",
"g@	c #DDDCD6",
"h@	c #7B7660",
"i@	c #6D674D",
"j@	c #7B7045",
"k@	c #75673D",
"l@	c #807C73",
"m@	c #54562B",
"n@	c #ADAAA7",
"o@	c #E5E8E7",
"p@	c #93918F",
"q@	c #CCCBC8",
"r@	c #E4E6E2",
"s@	c #C4C6C6",
"t@	c #C0BEAF",
"u@	c #AEACA2",
"v@	c #FAF7FB",
"w@	c #7E7B73",
"x@	c #FFFFFB",
"y@	c #FBFDFC",
"z@	c #FDFEFD",
"A@	c #E5E5E5",
"B@	c #EDEDEE",
"C@	c #FFFDFD",
"D@	c #FDFEFE",
". . . . . . . . . . . . . . . . . . . . . . . . ",
". . . . . . . . . . + @ . # . $ . . . . . . . . ",
". . . . . $ % $ + & * = - ; > . $ . . . . . . . ",
". . . . , + ' + ) ! ~ { ] ^ / ( + . $ . . . . . ",
". . . $ _ : < [ } | 1 2 3 4 5 6 + 7 . . . . . . ",
". . $ + + 8 9 0 a b c d e f g h i j + $ . . . . ",
". . + k l m n o p q r s t u v w x y z + . . . . ",
". . + A B C D E F G H I J K L M N O P Q R . . . ",
". , . S T U V W X Y Z `  ...+.@.#.$.%.&.$ . . . ",
". . *.=.-.;.>.,.'.).!.~.{._ ].^./.(._.:.<.. . . ",
", + [.}.|.1.2.3.4.5.6.7.8.9.0.a.b.c.d.e.f.g.h.+ ",
"# + i.j.k.l.m.n.o.p.q.r.s.t.u.v.w.x.y.z.A.B.C.D.",
"E.F.G.H.I.J.K.L.M.N.O.<.P.Q.R.t.S.T.U.V.W.X.Y.+ ",
"+ Z.`. +.+++@+#+$+%+&+*+=+-+;+>+,+'+)+!+~+{+]+^+",
"/+(+_+:+<+[+}+|+1+2+3+4+5+6+7+8+9+0+a+b+c+d++ $ ",
"e+f+g+h+i+j+k+l+m+n+o+p+q+r+s+t+u+v+w+x+y++ $ . ",
"+ + z+A+B+C+D+E+F+G+H+I+J+K+L+M+N+O+P+Q+R+- . . ",
". S+T+U+V+W+X+Y+Z+`+ @.@+@@@#@$@%@&@*@=@-@# . . ",
"^+# % ;@>@,@'@)@!@~@{@]@^@/@(@_@:@<@[@+ # ^+. . ",
". . + }@|@1@2@3@4@5@6@7@8@9@0@a@b@c@d@. . . . . ",
". . $ . e@f@g@h@i@j@k@l@m@n@o@p@+ . . $ . . . . ",
". . . $ . = q@r@s@t@u@v@w@+ <.x@y@@ . . . . . . ",
". . . . z@, + + + A@y@; B@C@. . @ z@. . . . . . ",
". . . . . . ^+D@@ . . D@. $ , . . . . . . . . . "};
