/* XPM */
static char * start_xpm[] = {
"24 24 190 2",
"  	c None",
". 	c #FFFEFF",
"+ 	c #FFFDFF",
"@ 	c #FEFEFE",
"# 	c #FFFFFF",
"$ 	c #FEFDFE",
"% 	c #E9E8E9",
"& 	c #545454",
"* 	c #DBDADB",
"= 	c #000000",
"- 	c #F3F2F3",
"; 	c #474748",
"> 	c #030000",
", 	c #E4E4E4",
"' 	c #A1A0A1",
") 	c #DEDEDE",
"! 	c #DBDBDB",
"~ 	c #0D0700",
"{ 	c #5E4012",
"] 	c #A4A4A4",
"^ 	c #F0EFF0",
"/ 	c #C4C4C6",
"( 	c #7C7D7E",
"_ 	c #737375",
": 	c #A9AAAB",
"< 	c #E7E7E7",
"[ 	c #8D8D8D",
"} 	c #575757",
"| 	c #68696A",
"1 	c #6D4B19",
"2 	c #AA7423",
"3 	c #292A2A",
"4 	c #717171",
"5 	c #090400",
"6 	c #4F3712",
"7 	c #876122",
"8 	c #896225",
"9 	c #6B4B18",
"0 	c #120B03",
"a 	c #282727",
"b 	c #EFEEEF",
"c 	c #3D3B3D",
"d 	c #E9E9E9",
"e 	c #FEFEFF",
"f 	c #E99F2C",
"g 	c #E19A2B",
"h 	c #2F210D",
"i 	c #614417",
"j 	c #38332C",
"k 	c #9FA0A1",
"l 	c #4E4E4E",
"m 	c #414141",
"n 	c #8E8E90",
"o 	c #54555B",
"p 	c #8F651E",
"q 	c #EAE9EB",
"r 	c #0D0F13",
"s 	c #3C2A0E",
"t 	c #959595",
"u 	c #BFBFC0",
"v 	c #301E06",
"w 	c #E29B2C",
"x 	c #DD972B",
"y 	c #E0992B",
"z 	c #92651F",
"A 	c #8B8D91",
"B 	c #505050",
"C 	c #AAAAAA",
"D 	c #A1A1A1",
"E 	c #896224",
"F 	c #050202",
"G 	c #473111",
"H 	c #C78927",
"I 	c #191B1E",
"J 	c #939494",
"K 	c #604215",
"L 	c #DD972A",
"M 	c #D79328",
"N 	c #4D5055",
"O 	c #010101",
"P 	c #DCDCDC",
"Q 	c #E0E0E0",
"R 	c #9FA0A2",
"S 	c #644514",
"T 	c #DA952A",
"U 	c #EDA22D",
"V 	c #A8A8A9",
"W 	c #442E0F",
"X 	c #DF982B",
"Y 	c #DE982B",
"Z 	c #A9782C",
"` 	c #595959",
" .	c #3B3B3B",
"..	c #5F5F5F",
"+.	c #919191",
"@.	c #E5E5E5",
"#.	c #565656",
"$.	c #52432D",
"%.	c #E29A2B",
"&.	c #C88927",
"*.	c #000105",
"=.	c #F6F4F6",
"-.	c #E59C2B",
";.	c #59482E",
">.	c #8C8C8C",
",.	c #BABABA",
"'.	c #CCCCCC",
").	c #E1E1E1",
"!.	c #595B61",
"~.	c #D99328",
"{.	c #31220B",
"].	c #ACACAD",
"^.	c #8F8F90",
"/.	c #3C2A0D",
"(.	c #E59D2C",
"_.	c #3D362D",
":.	c #4C4C4C",
"<.	c #777777",
"[.	c #737373",
"}.	c #ABABAB",
"|.	c #030303",
"1.	c #020202",
"2.	c #4F4F4F",
"3.	c #4B4B4B",
"4.	c #7B7B7B",
"5.	c #828282",
"6.	c #7B7D82",
"7.	c #A5711D",
"8.	c #030407",
"9.	c #141417",
"0.	c #92641E",
"a.	c #53442B",
"b.	c #6E6E6E",
"c.	c #8F8F8F",
"d.	c #BFBFBF",
"e.	c #626568",
"f.	c #211505",
"g.	c #C4C4C4",
"h.	c #E6E5E6",
"i.	c #9A6F2C",
"j.	c #6D6C6D",
"k.	c #E8E8E8",
"l.	c #C9C9C9",
"m.	c #787878",
"n.	c #0A0A0A",
"o.	c #5C4C34",
"p.	c #040000",
"q.	c #F8F7F8",
"r.	c #B9B9BA",
"s.	c #281C09",
"t.	c #54575D",
"u.	c #4D4D4D",
"v.	c #959698",
"w.	c #674916",
"x.	c #5C5D5F",
"y.	c #FFFDFE",
"z.	c #262526",
"A.	c #6D4D19",
"B.	c #76787F",
"C.	c #646364",
"D.	c #D5D5D5",
"E.	c #8C8D8D",
"F.	c #805E25",
"G.	c #EEEEEF",
"H.	c #F5F4F5",
"I.	c #060606",
"J.	c #593D13",
"K.	c #574F45",
"L.	c #848588",
"M.	c #535354",
"N.	c #484849",
"O.	c #7E7F80",
"P.	c #4F5257",
"Q.	c #79561E",
"R.	c #CAC9CA",
"S.	c #F9F8F9",
"T.	c #505053",
"U.	c #1D1200",
"V.	c #412B0B",
"W.	c #725524",
"X.	c #785B28",
"Y.	c #4F360F",
"Z.	c #2F1F04",
"`.	c #141517",
" +	c #D8D7D8",
".+	c #D9D9D9",
"++	c #545559",
"@+	c #4D4F53",
"#+	c #78797B",
"$+	c #C3C2C3",
". . . . . . . . . . . . . . . . . . . . . . . . ",
". . . . . . . . + + + + + + + + + . . . . . . . ",
". . . . . . @ . . # . # # # # # # . . + + . . . ",
". . . . $ % # . # # # # # # # # # # # # # . + . ",
". . . . # & # # # # # # # # # # # # # # # # . . ",
". . . $ * = # . # . . + + . . . . . - # . + . . ",
". . . # ; > , . + $ . # # # + . . . ' ) $ . . . ",
". . + ! ~ { ] $ # ^ / ( _ : < # . $ [ } # . . . ",
". . # | 1 2 3 $ 4 5 6 7 8 9 0 a b # c = d $ . . ",
". e . = f g h = i j k l m n o p = q r s t # . . ",
". . u v w x y z A = = = = B C D E F G H I # . . ",
". . J K L L M N = = = = O P , Q R S T U = $ . . ",
". . V W X Y Z ` = = =  ...+.@., #.$.%.&.*.# . . ",
". $ =.= -.g ;.= = = [ >.D ,.'.@.).!.~.{.].. . . ",
". . # ^./.(._.:.<.[.}.|.1.2.3.4.5.6.7.8.# + . . ",
". . $ # 9.0.a.b.@.) c.4 [ d.O = = e.f.g.. . . . ",
". . . . h.= i.j.k.l.m.m & n.= = = o.p.q.@ . . . ",
". . . . # r.s.t.u.m @.O = = = = v.w.x.# . . . . ",
". . . . y.# z.A.B.C.D.= = = = E.F.= G.$ . . . . ",
". . . . . $ H.I.J.K.L.M.N.O.P.Q.= R.# . . . . . ",
". . . . . . . S.T.U.V.W.X.Y.Z.`. +# . . . . . . ",
". . . . . . . $ # .+^.++@+#+$+# . . . . . . . . ",
". . . . . . . . . $ # # # # . . . . . . . . . . ",
". . . . . . . . . . . . . . . . . . . . . . . . "};
